<?xml version="1.0" encoding="utf-8"?>
<!-- Generator: Adobe Illustrator 16.0.4, SVG Export Plug-In . SVG Version: 6.00 Build 0)  -->
<!DOCTYPE svg PUBLIC "-//W3C//DTD SVG 1.1//EN" "http://www.w3.org/Graphics/SVG/1.1/DTD/svg11.dtd">
<svg version="1.1" id="レイヤー_1" xmlns="http://www.w3.org/2000/svg" xmlns:xlink="http://www.w3.org/1999/xlink" x="0px"
	 y="0px" width="124px" height="40px" viewBox="0 0 124 40" enable-background="new 0 0 124 40" xml:space="preserve">
<g>
	<path fill="#ffffff" d="M0,17.318c0.686-0.097,0.966-0.097,1.247-0.097c1.415,0,4.236,1.185,4.236,3.396
		c0,0.705-0.793,1.99-1.856,1.99c-1.15,0-1.855-1.858-2.08-2.247C0.959,19.346,1.027,18.252,0,17.57V17.318z M2.211,10.644
		c0.402-0.093,0.785-0.154,1.438-0.133c0.772,0.023,4.444,1.265,4.444,3.252c0,2.211-1.296,2.39-1.767,2.39
		c-1.276,0-1.234-0.412-2.124-2.39c-0.797-1.767-1.194-1.987-1.992-2.869V10.644z M5.583,30.841
		c-0.155,0.533-0.186,0.873-0.186,1.186c0,1.059-0.043,1.504,0.174,2.697c0.258,1.387,0.575,2.016,0.575,2.607
		c0,0.904-0.352,2.258-2.078,2.258c-0.973,0-1.899-1.105-1.899-1.725c0-0.715,0.219-2.701,0.219-3.008
		c0-2.607-0.618-2.432-1.983-2.969v-0.439c1.896,0.621,2.69-1.898,3.177-2.914c0.785-1.641,3.138-6.588,3.947-9.08
		c0.011-0.031,0.187-0.468,0.248-0.561l0.437,0.125L5.583,30.841z M8.286,21.724h7.683v-3.114h-5.194l-0.375-0.747h5.569v-2.805
		h-5.933l-0.375-0.747h6.308v-3.735l4.299,1.2c0.248,0.027,0.915,0.09,0.915,0.499c0,0.341-0.541,0.496-1.257,0.87v1.166h2.863
		l1.59-1.963c0.157-0.154,0.251-0.279,0.529-0.279c0.187,0,0.373,0.125,0.529,0.249l1.625,1.743c0.092,0.094,0.311,0.25,0.311,0.562
		s-0.311,0.436-0.562,0.436h-6.886v2.805h1.698l1.579-1.868c0.157-0.157,0.064-0.097,0.313-0.097c0.22,0,0.374,0.123,0.531,0.249
		l1.982,1.434c0.063,0.062,0.281,0.312,0.281,0.594c0,0.312-0.249,0.436-0.53,0.436h-5.855v3.114h4.571l1.315-2.024
		c0.125-0.188,0.25-0.312,0.498-0.312c0.218,0,0.375,0.125,0.56,0.279l1.971,1.776c0.157,0.125,0.344,0.312,0.344,0.592
		c0,0.311-0.312,0.436-0.563,0.436H8.61L8.286,21.724z M14.112,31.983h8.171v-2.807h-8.171V31.983z M14.112,29.177 M14.247,28.31
		h8.172v-2.867h-8.172V28.31z M14.247,25.444 M22.263,24.694l0.801-0.863c0.093-0.09,0.31-0.311,0.685-0.311
		c0.281,0,0.529,0.156,0.685,0.281l2.148,1.59c0.249,0.154,0.312,0.371,0.312,0.592c0,0.371-0.248,0.682-0.966,1.213v9.875
		c0,0.809,0.181,2.605-3.309,2.605c-0.778,0-0.678-0.285-1.027-0.592c-0.494-0.439-0.896-1.443-3.855-2.512l-0.267-0.521
		c1.432,0.219,2.79,0.148,3.165,0.148c0.56,0,1.65,0,1.65-1.152V32.96h-8.171v5.264c0,0.613-1.379,1.143-2.128,1.143
		c-0.249,0-1.636-0.139-1.636-1.105l0.444-6.545l-0.032-8.412l3.455,1.391H22.263z"/>
	<path fill="#ffffff" d="M43.18,21.071c-0.219,0.094-0.575,0.076-0.75,0.5c-3.676,8.871-8.824,12.137-11.846,13.871l-0.249-0.498
		c4.553-4.377,7.385-11.396,7.821-15.072h-6.163l-0.375-0.747h6.538l1.277-1.339c0.156-0.156,0.169-0.092,0.479-0.092
		c0.25,0,0.561,0.092,0.749,0.245l2.23,1.836c0,0,0.12,0.136,0.266,0.289C43.39,20.309,43.512,20.926,43.18,21.071 M49.59,21.013
		c0.305,0.582,0.752,1.039,0.752,1.039h0.133c2.456-1.809,3.958-5.546,3.958-5.546l0.478,0.01l3.697,3.027
		c0.154,0.095,0.405,0.28,0.405,0.5c0,0.56-0.724,0.64-1.566,0.64c0,0-0.628-0.132-1.247,0.133
		c-1.161,0.498-5.502,2.125-5.502,2.125c3.356,5.459,8.862,8.465,9.703,8.93c0.842,0.467,0.266,0.773,0.088,0.842
		c-0.177,0.066-1.149,0.465-1.149,0.465s0.531-0.09,0.065,0c-1.107,0.209-3.072,2.01-3.206,2.098c-0.13,0.09-0.531,0.09-0.62,0
		c-0.087-0.088-0.374-0.529-0.374-0.529l0.088,0.068c-3.489-3.023-6.368-8.668-7.439-15.656h-0.064v17.338
		c0,1.521-1.916,3.471-4.06,3.471c-0.655,0-0.949-0.643-0.949-0.799c0-0.906-1.991-2.721-4.977-3.537l-0.022-0.291
		c1.154,0.156,2.784,0.117,3.779,0.117c1.505,0,2.15,0.143,2.15-1.529V21.513V19.74v-8.879l4.437,0.941
		c0.406,0.032,0.719,0.188,0.719,0.559c0,0.283-0.245,0.657-0.399,0.75c-0.531,0.251-1.067,0.74-1.001,0.853
		C47.469,13.964,47.979,17.921,49.59,21.013"/>
	<path fill="#ffffff" d="M26.818,5.888c0.006,0.263,0.138,0.768,1.007,0.768c0.472,0,0.995-0.113,0.995-0.617
		c0-0.369-0.358-0.469-0.862-0.589l-0.511-0.121c-0.769-0.177-1.512-0.353-1.512-1.4c0-0.529,0.285-1.464,1.832-1.464
		c1.458,0,1.85,0.954,1.856,1.538h-0.956c-0.026-0.212-0.106-0.717-0.972-0.717c-0.378,0-0.832,0.142-0.832,0.571
		c0,0.372,0.305,0.45,0.503,0.497L28.53,4.64c0.649,0.159,1.247,0.422,1.247,1.28c0,1.434-1.46,1.557-1.877,1.557
		c-1.739,0-2.039-0.998-2.039-1.589H26.818z"/>
	<polygon fill="#ffffff" points="31.492,5.216 31.492,7.354 30.498,7.354 30.498,2.589 31.492,2.589 31.492,4.395 33.35,4.395 
		33.35,2.589 34.346,2.589 34.346,7.354 33.35,7.354 33.35,5.216 	"/>
	<rect x="35.372" y="2.589" fill="#ffffff" width="0.996" height="4.765"/>
	<polygon fill="#ffffff" points="42.529,7.354 41.649,7.354 41.649,3.374 41.635,3.374 40.619,7.354 39.195,7.354 38.201,3.374 
		38.186,3.374 38.186,7.354 37.125,7.354 37.125,2.589 38.912,2.589 39.898,6.342 39.949,6.342 40.922,2.589 42.529,2.589 	"/>
	<rect x="43.401" y="2.589" fill="#ffffff" width="0.996" height="4.765"/>
	<polygon fill="#ffffff" points="48.708,7.354 44.986,7.354 44.986,6.511 47.446,3.431 45.053,3.431 45.053,2.589 48.694,2.589 
		48.694,3.369 46.2,6.511 48.708,6.511 	"/>
	<path fill="#ffffff" d="M53.19,5.688c0,1.253-0.757,1.789-1.956,1.789c-0.438,0-1.088-0.104-1.513-0.574
		c-0.261-0.296-0.359-0.679-0.372-1.155V2.589h1.014v3.092c0,0.661,0.387,0.954,0.85,0.954c0.684,0,0.961-0.332,0.961-0.908V2.589
		h1.016V5.688z"/>
	<path fill="#ffffff" d="M59.044,4.147c-0.078-0.284-0.232-0.821-1.054-0.821c-0.48,0-1.182,0.316-1.182,1.664
		c0,0.855,0.338,1.627,1.182,1.627c0.55,0,0.935-0.314,1.054-0.895h0.996c-0.199,1.033-0.875,1.754-2.067,1.754
		c-1.27,0-2.177-0.854-2.177-2.501c0-1.664,0.961-2.512,2.188-2.512c1.428,0,2.004,0.981,2.057,1.684H59.044z"/>
	<path fill="#ffffff" d="M62.738,6.635c0.539,0,1.293-0.332,1.293-1.663c0-1.333-0.754-1.665-1.293-1.665
		c-0.534,0-1.291,0.332-1.291,1.665C61.448,6.303,62.205,6.635,62.738,6.635 M62.738,2.464c0.631,0,2.289,0.271,2.289,2.508
		c0,2.234-1.658,2.505-2.289,2.505c-0.628,0-2.289-0.271-2.289-2.505C60.45,2.735,62.11,2.464,62.738,2.464"/>
	<path fill="#ffffff" d="M67.833,4.684c0.515,0,0.768-0.179,0.768-0.647c0-0.253-0.112-0.623-0.696-0.623h-1.238v1.271H67.833z
		 M65.689,2.589h2.408c1.266,0,1.499,0.938,1.499,1.348c0,0.521-0.267,0.975-0.736,1.133c0.392,0.173,0.604,0.32,0.604,1.207
		c0,0.697,0,0.871,0.214,0.95v0.127h-1.104c-0.064-0.227-0.105-0.472-0.105-0.965c0-0.65-0.038-0.903-0.774-0.903h-1.028v1.868
		h-0.977V2.589z"/>
	<path fill="#ffffff" d="M72.394,4.811c0.744,0,0.744-0.529,0.744-0.742c0-0.465-0.259-0.655-0.876-0.655h-0.789v1.397H72.394z
		 M71.473,7.354h-0.995V2.589h2.175c0.924,0,1.48,0.591,1.48,1.526c0,0.43-0.239,1.519-1.52,1.519h-1.141V7.354z"/>
	<path fill="#ffffff" d="M76.713,6.635c0.537,0,1.293-0.332,1.293-1.663c0-1.333-0.756-1.665-1.293-1.665
		c-0.538,0-1.293,0.332-1.293,1.665C75.42,6.303,76.175,6.635,76.713,6.635 M76.713,2.464c0.631,0,2.289,0.271,2.289,2.508
		c0,2.234-1.658,2.505-2.289,2.505s-2.288-0.271-2.288-2.505C74.425,2.735,76.082,2.464,76.713,2.464"/>
	<path fill="#ffffff" d="M81.805,4.684c0.518,0,0.772-0.179,0.772-0.647c0-0.253-0.116-0.623-0.698-0.623h-1.242v1.271H81.805z
		 M79.663,2.589h2.406c1.269,0,1.5,0.938,1.5,1.348c0,0.521-0.265,0.975-0.735,1.133c0.391,0.173,0.603,0.32,0.603,1.207
		c0,0.697,0,0.871,0.214,0.95v0.127h-1.103c-0.064-0.227-0.105-0.472-0.105-0.965c0-0.65-0.038-0.903-0.777-0.903h-1.028v1.868
		h-0.974V2.589z"/>
	<path fill="#ffffff" d="M85.495,5.547h1.21l-0.587-1.976h-0.015L85.495,5.547z M84.844,7.354h-1.029l1.7-4.765h1.231l1.678,4.765
		h-1.147l-0.322-1.04h-1.758L84.844,7.354z"/>
	<polygon fill="#ffffff" points="90.468,7.354 89.47,7.354 89.47,3.431 88.033,3.431 88.033,2.589 91.907,2.589 91.907,3.431 
		90.468,3.431 	"/>
	<rect x="92.414" y="2.589" fill="#ffffff" width="0.996" height="4.765"/>
	<path fill="#ffffff" d="M96.355,6.635c0.54,0,1.296-0.332,1.296-1.663c0-1.333-0.756-1.665-1.296-1.665
		c-0.535,0-1.29,0.332-1.29,1.665C95.065,6.303,95.82,6.635,96.355,6.635 M96.355,2.464c0.632,0,2.292,0.271,2.292,2.508
		c0,2.234-1.66,2.505-2.292,2.505c-0.629,0-2.287-0.271-2.287-2.505C94.068,2.735,95.727,2.464,96.355,2.464"/>
	<polygon fill="#ffffff" points="102.407,2.589 103.275,2.589 103.275,7.354 102.05,7.354 100.108,3.654 100.094,3.654 
		100.094,7.354 99.25,7.354 99.25,2.589 100.503,2.589 102.394,6.168 102.407,6.168 	"/>
	<path fill="#ffffff" d="M110.038,6.95c0.734,0.988,2.026-0.026,3.369-1.09c1.344-1.064,2.316-2.067,1.446-2.939
		c-0.875-0.874-2.306,0.459-3.067,1.065C110.542,4.975,109.302,5.962,110.038,6.95 M107.502,4.822c0,1.444,1.218,3.75,4.968,3.75
		c3.751,0,5.093-1.853,5.093-3.75c0-1.901-2.457-3.446-5.093-3.446C109.1,1.376,107.502,3.375,107.502,4.822 M119.869,4.822
		c0,3.316-4.059,5.016-7.399,5.016c-3.346,0-7.248-1.569-7.248-5.016c0-2.205,3.296-4.766,7.248-4.766
		C116.776,0.057,119.869,2.186,119.869,4.822"/>
	<path fill="#ffffff" d="M67.954,30.134c0,0,1.458-2.719,1.954-6.23h-1.537c-0.414,0.68-0.682,1.291-1.107,1.662l0.293,0.127
		c0.527,0.332,0.465,1.027,0.164,1.424C67.42,27.515,66.893,28.114,67.954,30.134 M68.814,34.944
		c-2.554,2.754-5.231,4.396-6.766,4.908c-0.197,0.066-1.092-0.035-0.264-0.764c0.829-0.729,4.841-4.443,5.039-6.6
		c0.139-1.49-0.795-3.184-0.795-3.184c-0.531,0.432-0.961,1.959-1.326,2.654s-0.996,0.529-1.327,0.133
		c-0.331-0.398-1.392-1.459-1.392-1.459c-0.433-0.529-0.631-0.695,0.23-1.193c2.564-1.48,4.08-3.484,3.916-3.484
		c-0.377,0-2.337-0.154-2.337-1.059c0-0.279,0.093-0.467,0.466-1.092c0.404-0.65,1.872-5.925,2.713-9.008h-3.939l-0.374-0.747h4.313
		l0.836-1.16c0.281-0.215,0.56-0.37,0.84-0.37c0.219,0,0.529,0.155,0.655,0.279l2.38,1.495c0.282,0.247,0.35,0.854,0.35,0.916
		c0,0.748-1.293,0.728-1.525,1.13c-0.93,1.589-1.295,4.908-1.824,6.4h1.592l0.758-0.768c0.248-0.281,0.529-0.467,0.903-0.467
		c0.28,0,0.44,0.314,0.659,0.471l1.228,0.963l0.828,0.729c0,0,0.367,0.369,0.337,0.553c-0.104,0.609-1.305,0.973-1.398,1.305
		c-1.356,4.875-3.682,7.961-3.682,7.961c2.721,2.021,4.133,1.822,10.549,1.822c2.676,0,6.332-0.199,11.671-1.211l0.685-0.031v0.309
		c-0.219,0.252-2.487,3.205-2.673,3.951c0,0,0.165,0.367-1.462,0.432c0,0-7.69,0.033-9.053,0.033c0,0-3.382,0.137-5.999-0.861
		C70.838,36.87,68.814,34.944,68.814,34.944"/>
	<path fill="#ffffff" d="M82.951,18.443h1.182v-2.906h-2.18v2.906H82.951l0.389,0.744h-1.387v3.302h2.18v-3.302H83.34L82.951,18.443
		z M82.961,26.341h0.679l1.244-1.734c0.061-0.07,0.123-0.125,0.19-0.184c-0.707-0.178-0.97-0.762-0.97-0.934v-0.25h-2.294v3.102
		H82.961l-0.286,0.744l-0.864,0.004v3.031l3.586-0.016l2.022-2.076c0.124-0.156,0.248-0.281,0.498-0.281
		c0.218,0,0.342,0.094,0.593,0.281l2.281,1.812c0.155,0.123,0.312,0.342,0.312,0.59c0,0.312-0.28,0.436-0.528,0.436h-8.764v2.43
		c0,0.658-0.209,0.912-0.957,1.283c-0.84,0.436-1.78,0.369-2.187,0.369c-1.025,0-1.025-0.592-1.025-1.09v-2.992h-5.048l-0.373-0.746
		h5.421v-3.031h-3.168l-0.372-0.748h3.54v-3.102h-2.626l-0.695-0.75h3.321v-3.302h-6.825l-0.373-0.744h7.198v-2.861h-4.487
		l-0.373-0.747h4.86v-4.212l4.689,1.273c0.188,0,0.624,0.123,0.624,0.497c0,0.436-0.625,1.131-1,1.319l-0.029,1.079h2.353
		l0.752-1.029c0.219-0.25,0.379-0.483,0.754-0.483c0.312,0,0.591,0.154,0.776,0.278l1.991,1.238
		c0.188,0.124,0.281,0.312,0.281,0.559c0,0.343-0.114,0.375-0.924,1.252v1.228h0.062l1.028-1.095c0.126-0.216,0.343-0.278,0.5-0.278
		c0.218,0,0.372,0.125,0.559,0.278l1.717,1.455c0.187,0.154,0.312,0.277,0.312,0.561c0,0.31-0.28,0.433-0.528,0.433h-3.649v3.21
		c0,0.281,0.029,0.822-0.193,1.041c-0.537,0.537-1.464,1.023-1.761,1.09l1.888,1.531c0.188,0.125,0.341,0.311,0.341,0.592
		c0,0.312-0.277,0.438-0.525,0.438l-4.983-0.004L82.961,26.341z"/>
	<path fill="#ffffff" d="M115.277,25.616h-5.008c0.529,1.799,1.656,3.492,2.951,4.488C114.181,28.81,115.013,27.032,115.277,25.616
		 M106.312,24.868h9.185l0.613-0.871c0.094-0.127,0.53-0.596,1.091-0.596c0.28,0,0.592,0.156,0.81,0.346l2.417,1.809
		c0.127,0.125,0.155,0.279,0.155,0.436c0,0.592-1.096,0.621-1.427,1.059c-0.694,0.932-1.324,3.613-2.918,5.307
		c0,0,0.767,1.262,7.763,3.053v0.248c-0.811,0.529-2.324,1.377-3.615,2.67c-0.378,0.379-0.159,0.695-0.564,0.729
		c-1.159,0.1-6.137-4.178-6.137-4.178c-4.078,2.887-7.657,4.541-12.288,4.863l-0.092-0.314c4.521-2.027,8.004-3.854,10.458-7.037
		c0,0-2.055-3.314-2.486-6.773h-2.809L106.312,24.868z M99.772,35.106h2.419v-5.207h-2.419V35.106z M99.772,29.899 M102.26,28.981
		l0.758-1.016c0.249-0.344,0.53-0.561,0.874-0.561c0.247,0,0.367,0.08,0.556,0.234l1.668,1.172c0.313,0.217,0.561,0.404,0.561,0.719
		c0,0.311-0.154,0.482-0.771,0.883v5.18c0,1.43-0.888,1.895-1.815,1.895c-0.529,0-1.747-0.131-1.86-0.805v-0.719h-2.443v1.863
		c0,1.061-1.246,1.496-2.462,1.496c-0.652,0-1.373-0.299-1.373-0.951l0.187-3.207v-7.711l4.106,1.527H102.26z M101.205,21.198
		l1.057-1.651c0.095-0.154,0.283-0.311,0.501-0.311c0.217,0,0.341,0.092,0.559,0.28l1.686,1.434
		c0.062,0.029,0.308,0.279,0.308,0.561c0,0.311-0.277,0.436-0.559,0.436h-7.889l-0.374-0.748H101.205z M102.2,17.444l1.186-2.145
		c0.095-0.124,0.218-0.311,0.496-0.311c0.22,0,0.349,0.092,0.565,0.278l2.237,1.897c0.032,0.029,0.312,0.279,0.312,0.592
		c0,0.31-0.279,0.438-0.562,0.438H94.817l-0.373-0.75H102.2z M100.441,13.374l1.513-1.851c0.127-0.156,0.25-0.279,0.5-0.279
		c0.153,0,0.186,0,0.56,0.249l1.787,1.601c0.062,0.062,0.283,0.28,0.283,0.59c0,0.312-0.249,0.438-0.533,0.438h-8.163l-0.373-0.748
		H100.441z M105.193,24.267c1.693-1.891,2.951-4.81,2.989-6.044v-6.591l4.142,1.666h1.634l0.938-1.312
		c0.219-0.25,0.498-0.265,0.677-0.279c0.062-0.004,0.438,0.029,0.687,0.249l1.713,1.432c0.31,0.249,0.341,0.626,0.341,0.718
		c0,0.279,0.021,0.284-0.91,1.027v3.933c0,0.467,0.341,0.622,0.591,0.622h1.429c0.53,0,0.769-1.697,1.822-5.403l0.283,0.064
		l0.778,4.106c-0.03,0.465,0.288,0.601,0.538,0.849c0.279,0.249,0.592,0.686,0.592,1.214c0,1.279-1.784,2.473-2.75,2.473h-4.05
		c-2.024,0-2.711-1.432-2.711-2.647v-6.299h-2.097v2.281c0,2.336-1.991,6.878-6.336,8.274 M105.338,24.962
		c0.116,0.125-0.044,0.564-0.232,0.564l-7.812,0.09l-0.374-0.748h4.154l1.304-1.615c0.125-0.156,0.248-0.312,0.532-0.312
		c0.216,0,0.34,0.123,0.528,0.312L105.338,24.962z"/>
</g>
</svg>
