<?xml version="1.0" encoding="utf-8"?>
<!-- Generator: Adobe Illustrator 22.1.0, SVG Export Plug-In . SVG Version: 6.00 Build 0)  -->
<svg version="1.1" id="レイヤー_1" xmlns="http://www.w3.org/2000/svg" xmlns:xlink="http://www.w3.org/1999/xlink" x="0px"
	 y="0px" viewBox="0 0 692.2 223.7" style="enable-background:new 0 0 692.2 223.7;" xml:space="preserve">
<style type="text/css">
	.st0{display:none;}
	.st1{display:inline;fill:#231815;}
	.st2{display:inline;fill:#FFFFFF;}
	.st3{fill:#4A4A4A;}
	.st4{display:inline;}
	.st5{fill:none;stroke:#231815;stroke-width:14;stroke-linecap:round;stroke-linejoin:round;stroke-miterlimit:10;}
	.st6{fill:none;stroke:#231815;stroke-width:5;stroke-linecap:round;stroke-linejoin:round;stroke-miterlimit:10;}
	.st7{fill:#FFFFFF;}
	.st8{fill:none;stroke:#231815;stroke-width:24;stroke-linecap:round;stroke-linejoin:round;stroke-miterlimit:10;}
	.st9{fill:none;stroke:#231815;stroke-width:22;stroke-linecap:round;stroke-linejoin:round;stroke-miterlimit:10;}
	.st10{fill:none;stroke:#231815;stroke-width:20;stroke-linecap:round;stroke-linejoin:round;stroke-miterlimit:10;}
	.st11{fill:#6D92E5;}
	.st12{fill:#062981;}
</style>
<g id="guide" class="st0">
</g>
<g id="マーク">
	<g id="ドラフト_2_" class="st0">
		<ellipse class="st1" cx="648.6" cy="171.5" rx="30.9" ry="26.3"/>
		<ellipse class="st2" cx="646.1" cy="166.3" rx="31.5" ry="26.8"/>
		<path class="st1" d="M666.1,163.4h-16.8c-1.7,0-3.2,1.4-3.2,3.2v7.7c0,1.7,1.4,3.2,3.2,3.2h16.8c1.7,0,3.2-1.4,3.2-3.2v-7.7
			C669.3,164.8,667.8,163.4,666.1,163.4z M666.9,174.2c0,0.5-0.4,0.8-0.8,0.8H660l5-5c0.3-0.3,0.3-0.9,0-1.2s-0.9-0.3-1.2,0l-6,6
			l-0.1,0.1H655l3.6-3.6c0.3-0.3,0.3-0.9,0-1.2s-0.9-0.3-1.2,0l-4.6,4.6l-0.1,0.1h-3.4c-0.5,0-0.8-0.4-0.8-0.8v-7.7
			c0-0.5,0.4-0.8,0.8-0.8h16.8c0.5,0,0.8,0.4,0.8,0.8L666.9,174.2L666.9,174.2z"/>
		<path class="st1" d="M639.7,163.4h-16.8c-1.7,0-3.2,1.4-3.2,3.2v7.7c0,1.7,1.4,3.2,3.2,3.2h16.8c1.7,0,3.2-1.4,3.2-3.2v-7.7
			C642.9,164.8,641.4,163.4,639.7,163.4z M640.5,174.2c0,0.5-0.4,0.8-0.8,0.8h-4.9l3.6-3.6c0.3-0.3,0.3-0.9,0-1.2s-0.9-0.3-1.2,0
			l-4.6,4.6l-0.1,0.1H630l2.6-2.7c0.3-0.3,0.3-0.9,0-1.2s-0.9-0.3-1.2,0l-3.7,3.7l-0.1,0.1h-4.7c-0.4,0-0.8-0.4-0.8-0.8v-7.7
			c0-0.4,0.4-0.8,0.8-0.8h16.8c0.5,0,0.8,0.4,0.8,0.8L640.5,174.2L640.5,174.2z"/>
	</g>
	<g id="アウトライン_2_">
		<path class="st3" d="M670.9,171.5h-17.2c-1.8,0-3.2,1.5-3.2,3.2v7.8c0,1.8,1.5,3.2,3.2,3.2h17.2c1.8,0,3.2-1.5,3.2-3.2v-7.8
			C674.2,173,672.7,171.5,670.9,171.5z M671.8,182.6c0,0.5-0.4,0.8-0.8,0.8h-6.2l5.1-5.1c0.3-0.3,0.3-0.9,0-1.2s-0.9-0.3-1.2,0
			l-6.2,6.2l-0.1,0.1h-2.7l3.7-3.7c0.3-0.3,0.3-0.9,0-1.2s-0.9-0.3-1.2,0l-4.8,4.8l-0.1,0.1h-3.5c-0.5,0-0.8-0.4-0.8-0.8v-7.8
			c0-0.5,0.4-0.8,0.8-0.8H671c0.5,0,0.8,0.4,0.8,0.8V182.6z"/>
		<path class="st3" d="M643.9,171.5h-17.2c-1.8,0-3.2,1.5-3.2,3.2v7.8c0,1.8,1.5,3.2,3.2,3.2h17.2c1.8,0,3.2-1.5,3.2-3.2v-7.8
			C647.1,173,645.7,171.5,643.9,171.5z M644.7,182.6c0,0.5-0.4,0.8-0.8,0.8h-5l3.7-3.7c0.3-0.3,0.3-0.9,0-1.2s-0.9-0.3-1.2,0
			l-4.8,4.8l-0.1,0.1h-2.6l2.7-2.7c0.3-0.3,0.3-0.9,0-1.2s-0.9-0.3-1.2,0l-3.7,3.8l-0.1,0.1h-4.8c-0.5,0-0.8-0.4-0.8-0.8v-7.8
			c0-0.5,0.4-0.8,0.8-0.8H644c0.5,0,0.8,0.4,0.8,0.8v7.8H644.7z"/>
		<path class="st3" d="M679.3,165.2c0.9,2.9,1.4,6,1.4,9.2c0,17.6-14.2,31.8-31.8,31.8c-12.4,0-23.2-7.1-28.4-17.5
			c4,13,16.1,22.5,30.4,22.5c17.6,0,31.8-14.2,31.8-31.8C682.7,174.3,681.4,169.5,679.3,165.2z"/>
	</g>
</g>
<g id="英表記">
	<g id="ドラフト" class="st0">
		<g id="N" class="st4">
			<line class="st5" x1="585.9" y1="167.4" x2="685.2" y2="99.7"/>
			<polyline class="st5" points="534.6,152.6 590.8,114.2 585.9,167.4 			"/>
		</g>
		<g id="A" class="st4">
			<polyline class="st5" points="460.7,167.4 538.6,114.2 533.6,167.4 			"/>
			<line class="st5" x1="484.4" y1="151.2" x2="513.1" y2="151.2"/>
		</g>
		<g id="R" class="st4">
			<path class="st5" d="M422.7,119.6h26.4c8,0,14.5,5.4,14.5,12s-6.5,12-14.5,12h-8.2l19.8,23.9"/>
		</g>
		<g id="_x30_" class="st4">
			<circle class="st6" cx="355.3" cy="119.3" r="67.4"/>
			<polygon class="st7" points="301.7,187.9 353.6,152.5 328.9,82.2 277.1,117.6 			"/>
			<polygon class="st7" points="447.5,70.1 395.6,105.5 401.8,112.6 466.3,112.6 466.3,108.6 			"/>
			<line class="st5" x1="304.9" y1="167.4" x2="416.6" y2="91.2"/>
		</g>
		<g id="M" class="st4">
			<polyline class="st5" points="178.4,167.4 257.1,113.7 252.1,167.4 			"/>
			<polyline class="st5" points="253.1,152.5 309.9,113.7 304.9,167.4 			"/>
		</g>
		<g id="I" class="st4">
			<line class="st5" x1="183.4" y1="113.7" x2="178.4" y2="167.4"/>
		</g>
		<g id="K" class="st4">
			<g>
				<line class="st8" x1="60.2" y1="32.5" x2="43.5" y2="211.7"/>
			</g>
			<line class="st9" x1="91.7" y1="114.3" x2="161.9" y2="188.8"/>
			<line class="st10" x1="10" y1="167.4" x2="240.7" y2="10"/>
		</g>
	</g>
	<g id="アウトライン_1_">
		<g id="RAN">
			<path class="st11" d="M691,95.7c-2.2-3.2-6.5-4-9.7-1.8l-87,59.4l3.6-38.3c0.3-2.7-1.1-5.3-3.4-6.7c-2.3-1.4-5.3-1.3-7.5,0.2
				l-43.5,29.7l2.2-23.3c0.3-2.7-1.1-5.3-3.4-6.7c-2.3-1.4-5.3-1.3-7.5,0.2L462,158l-6.9-8.3c8.9-2.3,15.4-9.6,15.4-18.2
				c0-10.5-9.7-19-21.5-19h-24.2l0,0h-5c0.2,2.2,0.4,4.5,0.4,6.8c0,35.8-29.1,64.9-64.9,64.9c-12.5,0-24.1-3.5-34-9.7l-4.5,3.1
				c11.1,7.3,24.3,11.6,38.5,11.6c36.1,0,65.9-27.5,69.6-62.7h24.2c4.4,0,7.5,2.6,7.5,5s-3.1,5-7.5,5h-8.2c-2.7,0-5.2,1.6-6.3,4
				c-1.2,2.5-0.8,5.4,1,7.4l19.8,23.9c1.3,1.5,3.1,2.4,4.9,2.5c0.1,0,0.3,0.1,0.4,0.1c1.2,0,2.4-0.3,3.4-0.9c0,0,0.1,0,0.1-0.1
				c0.1-0.1,0.3-0.1,0.4-0.2l21.9-15h26.6c3.9,0,7-3.1,7-7s-3.1-7-7-7H507l23.2-15.8l-3.6,38.3c-0.4,3.8,2.5,7.3,6.3,7.6
				c3.9,0.4,7.3-2.5,7.6-6.3l1.1-11.8l40.8-27.8l-3.6,38.3c-0.4,3.8,2.5,7.3,6.3,7.6c0.2,0,0.4,0,0.6,0l0,0l0,0c0.3,0,0.6,0,0.9-0.1
				c0.1,0,0.1,0,0.2,0c0.3,0,0.6-0.1,0.9-0.2h0.1c0.3-0.1,0.5-0.2,0.8-0.3c0,0,0.1,0,0.1-0.1c0.3-0.1,0.5-0.3,0.8-0.5h0.1l99.3-67.8
				C692.3,103.3,693.2,98.9,691,95.7z"/>
		</g>
		<g id="IM0">
			<g>
				<path class="st11" d="M306,174.3c0.3,0,0.6-0.1,0.9-0.2h0.1c0.3-0.1,0.5-0.2,0.8-0.3c0,0,0.1,0,0.1-0.1c0.3-0.1,0.5-0.3,0.8-0.5
					h0.1L417,99.4l0,0l4.3-2.9l0,0l0,0c0,0-0.1-0.1-0.1-0.3c-9.6-27.2-35.5-46.7-65.9-46.7c-36,0-65.7,27.3-69.5,62.3l5.6-3.8
					c5.4-30.3,32-53.5,63.9-53.5c23.8,0,44.6,12.9,55.9,32l-97.9,66.8l3.6-38.9c0.3-2.7-1.1-5.3-3.4-6.7c-2.3-1.4-5.3-1.3-7.5,0.2
					L261.9,138l2.2-23.6c0.3-2.7-1.1-5.3-3.4-6.7c-2.3-1.4-5.3-1.3-7.5,0.2l-66.4,45.3l3.6-38.9c0.4-3.8-2.5-7.3-6.3-7.6
					c-3.8-0.4-7.3,2.5-7.6,6.3l-5,53.7c-0.4,3.8,2.5,7.3,6.3,7.6c0.2,0,0.4,0,0.6,0l0,0l0,0c0.3,0,0.6,0,0.9-0.1c0.1,0,0.1,0,0.2,0
					c0.3,0,0.6-0.1,0.9-0.2h0.1c0.3-0.1,0.5-0.2,0.8-0.3c0,0,0.1,0,0.1-0.1c0.3-0.1,0.6-0.3,0.8-0.5h0.1l66.4-45.3l-3.6,38.9
					c-0.4,3.8,2.5,7.3,6.3,7.6c3.8,0.4,7.3-2.5,7.6-6.3l1.1-12l41.4-28.2l-3.6,38.9c-0.4,3.8,2.5,7.3,6.3,7.6c0.2,0,0.4,0,0.6,0l0,0
					l0,0c0.3,0,0.6,0,0.9-0.1C305.9,174.3,305.9,174.3,306,174.3z"/>
			</g>
		</g>
		<g id="K_1_">
			<path class="st12" d="M249,4.4c-3.1-4.6-9.3-5.7-13.9-2.6L64.3,118.3l7.9-84.6c0.6-6.6-4.2-12.4-10.8-13.1
				C54.8,20,49,24.8,48.3,31.4l-9.7,104.4L4.4,159.1c-4.6,3.1-5.7,9.3-2.6,13.9c1.9,2.8,5.1,4.4,8.3,4.4c1.9,0,3.9-0.6,5.6-1.7
				l20.5-14l-4.6,48.9c-0.6,6.6,4.2,12.4,10.8,13.1c0.4,0,0.8,0.1,1.1,0.1c6.1,0,11.4-4.7,11.9-10.9l6.4-68.7l26.1-17.8l66,70
				c2.2,2.3,5.1,3.5,8,3.5c2.7,0,5.4-1,7.5-3c4.4-4.2,4.6-11.1,0.5-15.5l-63.6-67.5l140-95.5C250.9,15.1,252.1,8.9,249,4.4z"/>
		</g>
	</g>
</g>
</svg>
